<svg width="29" height="27" viewBox="0 0 29 27" fill="none" xmlns="http://www.w3.org/2000/svg">
<path d="M9.96338 3.3403C11.4127 -0.970181 17.5433 -0.970183 18.9926 3.3403V3.3403C19.6295 5.23477 21.409 6.52288 23.4077 6.52288H23.6815C28.1437 6.52288 29.9579 12.2641 26.306 14.8281V14.8281C24.6502 15.9907 23.959 18.1112 24.6037 20.0288V20.0288C26.0254 24.257 21.2317 27.8745 17.5809 25.3112L17.2163 25.0553C15.5731 23.9015 13.3829 23.9015 11.7396 25.0553L11.3751 25.3112C7.72429 27.8745 2.9306 24.257 4.35224 20.0288V20.0288C4.99701 18.1112 4.30576 15.9907 2.64997 14.8281V14.8281C-1.00197 12.2641 0.812237 6.52288 5.27441 6.52288H5.54823C7.54691 6.52288 9.32641 5.23477 9.96338 3.3403V3.3403Z" fill="#F9F9F9"/>
</svg>
