<svg width="33" height="28" viewBox="0 0 33 28" fill="none" xmlns="http://www.w3.org/2000/svg">
<path d="M12.3245 1.41349C12.9258 -0.423772 15.5249 -0.423766 16.1261 1.41349L17.0475 4.22882C17.3246 5.07557 18.1284 5.63692 19.0187 5.60553L30.8075 5.18988C33.2271 5.10456 33.6886 8.58933 31.3302 9.13683L21.6767 11.3778C20.5331 11.6433 19.863 12.8322 20.2282 13.9481L20.9285 16.0879C21.5306 17.928 19.4278 19.4646 17.8576 18.3319L15.6677 16.7522C14.8452 16.1589 13.7088 16.2751 13.0235 17.0226L4.11585 26.7377C2.46367 28.5397 -0.359871 26.3696 0.95628 24.3094L7.98671 13.3044C8.51442 12.4784 8.36569 11.3916 7.63543 10.7377L2.50013 6.1395C0.796818 4.61432 2.57249 1.88631 4.65663 2.82641L8.90491 4.74269C9.98919 5.23177 11.2581 4.67211 11.6281 3.54163L12.3245 1.41349Z" fill="#F9F9F9"/>
</svg>
