<?xml version="1.0" encoding="UTF-8"?>
<svg id="Layer_1" data-name="Layer 1" xmlns="http://www.w3.org/2000/svg" viewBox="0 0 983.39 623.02">
  <defs>
    <style>
      .cls-1 {
        fill: #f1f2f2;
        stroke-width: 0px;
      }
    </style>
  </defs>
  <path class="cls-1" d="m486.25,26.2H177.05C91.04,26.2,21.05,96.19,21.05,182.2v263.77c0,86.02,69.98,156,156,156h96.4c-9-10.66-17.53-22.25-25.25-34.42-11.79-18.58-20.94-37.4-27.18-55.58h-43.98c-17.51,0-34.05-6.9-46.57-19.43-12.53-12.53-19.43-29.07-19.43-46.57V182.2c0-17.51,6.9-34.05,19.43-46.57,12.53-12.53,29.07-19.43,46.57-19.43h309.2c17.51,0,34.05,6.9,46.57,19.43,12.53,12.53,19.43,29.07,19.43,46.57v263.77c0,17.51-6.9,34.05-19.43,46.57-12.53,12.53-29.07,19.43-46.57,19.43h-1.94l40.23,85.24c67.56-17.12,117.7-78.43,117.7-151.24V182.2c0-86.02-69.98-156-156-156Z"/>
  <path class="cls-1" d="m811.29,26.2h-164.61c22.42,26.42,39.77,56.93,51.44,90h113.17c17.51,0,34.05,6.9,46.57,19.43,12.53,12.53,19.43,29.07,19.43,46.57v263.77c0,17.51-6.9,34.05-19.43,46.57-12.53,12.53-29.07,19.43-46.57,19.43h-110.04c-3.57,18.22-14.44,37.94-25.85,56.91-7.37,12.25-15.62,23.21-24.33,32.44v.65h160.22c86.02,0,156-69.98,156-156V182.2c0-86.02-69.98-156-156-156Z"/>
  <path class="cls-1" d="m396.08,492.54c-12.53-12.53-19.43-29.07-19.43-46.57V169.73h-90v276.24c0,86.02,69.98,156,156,156h13.05l-44.87-98.27c-5.33-2.97-10.3-6.7-14.75-11.15Z"/>
</svg>